<svg width="59" height="58" viewBox="0 0 59 58" fill="none" xmlns="http://www.w3.org/2000/svg">
<rect x="0.5" width="58" height="58" rx="29" fill="#E3E3E3"/>
<path d="M39.3028 23.2282L37.1148 18.3238C36.4077 16.7386 34.5472 16.0241 32.962 16.7312C32.6866 16.8503 32.441 17.014 32.2252 17.2L32.0243 16.7461C31.6968 16.0018 31.094 15.4362 30.3349 15.1459C29.5758 14.8557 28.7497 14.878 28.0129 15.2055L27.812 15.2948C27.5813 15.399 27.3729 15.5255 27.1868 15.6743C26.3682 14.5059 24.8127 14.0371 23.4582 14.6325L23.2573 14.7218C21.7614 15.3916 21.0693 17.1256 21.6795 18.629C21.4711 18.6736 21.2553 18.7406 21.0544 18.8299L20.8534 18.9192C19.3277 19.6039 18.6356 21.3975 19.3203 22.9306L22.2154 29.4277C21.8805 29.383 21.5381 29.3756 21.1958 29.4277C20.2581 29.5616 19.432 30.0602 18.8664 30.8119C17.7054 32.3673 18.018 34.5628 19.5511 35.7387C20.0423 36.1629 20.9055 36.9667 21.2404 37.376C22.5652 39.0207 24.396 41.0896 26.8519 42.5558C28.705 43.6647 30.5731 44.2154 32.4411 44.2154C33.8923 44.2154 35.3436 43.8805 36.7948 43.2107C39.7494 41.8413 41.61 40.0701 42.4806 37.8001C43.4928 35.1581 43.4333 32.3077 42.302 29.7696L39.3028 23.2282ZM40.2703 36.9744C39.6228 38.6638 38.2013 39.9736 35.79 41.0899C31.6 43.0324 27.4397 41.3355 23.0713 35.9101C22.4834 35.1883 21.2033 34.0644 21.0544 33.9454L20.9875 33.8933C20.7344 33.7072 20.5707 33.4319 20.526 33.1119C20.4814 32.7919 20.5558 32.4867 20.7493 32.2337C20.9354 31.9807 21.2182 31.8169 21.5307 31.7723C21.8433 31.7276 22.1559 31.802 22.4089 31.9955L23.942 33.0672C24.009 33.1268 24.0908 33.1863 24.1727 33.231L27.0901 35.2776C27.6259 35.6497 28.3553 35.5232 28.7348 34.9873C29.1069 34.4515 28.9804 33.7221 28.4446 33.3426L25.6686 31.4001L21.4637 21.9781C21.3149 21.6358 21.4637 21.2339 21.806 21.0851L22.007 20.9958C22.1707 20.9213 22.3568 20.9139 22.5279 20.9809C22.6991 21.0479 22.8331 21.1744 22.9075 21.3381L26.4202 29.2121C26.6882 29.8075 27.3803 30.0754 27.9756 29.8075C28.571 29.5395 28.839 28.8475 28.571 28.2521L25.0583 20.3781C24.9913 20.2218 24.902 20.073 24.8127 19.939C24.7978 19.8869 24.7829 19.8348 24.7606 19.7901L23.8675 17.7882C23.7187 17.4458 23.8675 17.0439 24.2099 16.8951L24.4108 16.8058C24.7531 16.6569 25.1551 16.8058 25.3039 17.1481L26.2193 19.2022C26.2341 19.2394 26.249 19.2841 26.2639 19.3213C26.2713 19.3436 26.2862 19.3585 26.2937 19.3734L30.1562 28.0435C30.3497 28.4826 30.7814 28.7431 31.2353 28.7431C31.3991 28.7431 31.5554 28.7133 31.7116 28.6389C32.307 28.371 32.575 27.6789 32.307 27.0835L28.3924 18.3018C28.2808 17.9743 28.4296 17.6096 28.7571 17.4682L28.958 17.3789C29.1217 17.3045 29.3078 17.2971 29.479 17.364C29.6501 17.431 29.7841 17.5575 29.8585 17.7213L34.1155 27.2698C34.309 27.7089 34.7406 27.9694 35.1946 27.9694C35.3583 27.9694 35.5146 27.9396 35.6709 27.8652C36.2663 27.5973 36.5342 26.9052 36.2663 26.3098L33.6094 20.3486C33.6019 20.2146 33.5722 20.0732 33.5126 19.9467C33.334 19.5522 33.5126 19.0833 33.9145 18.9048C34.3089 18.7262 34.7778 18.9048 34.9564 19.3067L36.9881 23.8539L40.1436 30.7828C41.0144 32.7178 41.059 34.9206 40.2701 36.9747L40.2703 36.9744Z" fill="#111111"/>
<path d="M46.1645 20.8836C45.1227 18.2863 43.463 15.942 41.3568 14.0814C40.8657 13.6497 40.1214 13.6944 39.6898 14.1856C39.2581 14.6768 39.3028 15.421 39.794 15.8526C41.6247 17.4676 43.0686 19.5068 43.9691 21.7618C44.1551 22.2232 44.5942 22.5061 45.0631 22.5061C45.2119 22.5061 45.3607 22.4763 45.5021 22.4242C46.1124 22.1712 46.4026 21.4865 46.1645 20.8836L46.1645 20.8836Z" fill="#111111"/>
<path d="M15.376 20.244C14.7657 20.0207 14.0885 20.3333 13.8578 20.9435C12.7638 23.9055 12.4735 27.1206 13.0243 30.2539C13.1284 30.827 13.6196 31.2288 14.1852 31.2288C14.2522 31.2288 14.3192 31.2214 14.3936 31.214C15.0336 31.1023 15.4653 30.4921 15.3536 29.852C14.8773 27.1356 15.1229 24.3447 16.0755 21.7698C16.2988 21.1446 15.9862 20.4674 15.3759 20.2441L15.376 20.244Z" fill="#111111"/>
</svg>
