<svg width="148" height="30" viewBox="0 0 148 30" fill="none" xmlns="http://www.w3.org/2000/svg">
<g clip-path="url(#clip0_7954_52930)">
<g clip-path="url(#clip1_7954_52930)">
<path d="M19.4978 16.8044C19.1588 18.9893 17.4455 20.3476 15.0232 20.3476C11.9657 20.3476 9.99043 18.0235 9.99043 14.4277C9.99043 11.0292 11.9358 8.9222 15.0682 8.9222C17.283 8.9222 18.9427 10.1895 19.2957 12.1507L19.3384 12.3809H23.4997L23.459 12.063C22.9157 7.76454 19.5801 4.87695 15.1612 4.87695H15.0264C12.4854 4.87695 10.1541 5.84496 8.46113 7.60229C6.73825 9.39141 5.80783 11.858 5.8474 14.5395C5.81318 17.3065 6.76392 19.8367 8.52101 21.6653C10.2172 23.4259 12.5443 24.395 15.0767 24.395H15.2072C19.5203 24.395 22.9981 21.3112 23.6643 16.8954L23.7135 16.5665H19.5363L19.4978 16.8044Z" fill="white"/>
<path d="M45.3984 20.5201C45.3738 20.1112 45.2518 19.1114 45.1481 18.3725C44.9246 16.9353 44.4081 16.0703 43.4605 15.5912C44.9385 14.7011 45.7149 13.1641 45.7149 11.1075C45.7149 7.33958 43.4006 5.17773 39.3667 5.17773H30.8604V23.9547H34.9189V17.0383H38.4769C40.6361 17.1479 40.6426 17.1896 41.0062 19.4907L41.1409 20.5497C41.3152 22.0099 41.4318 22.9746 41.7933 23.7903L41.866 23.9547H46.0283V23.3846L46.0069 23.3309C45.5877 22.3388 45.5074 21.7698 45.3984 20.5201ZM34.9178 9.22188H38.6684C39.9795 9.22188 41.543 9.57708 41.543 11.2697C41.543 12.6434 40.6137 13.3395 38.7806 13.3395H34.9189L34.9178 9.22188Z" fill="white"/>
<path d="M51.5277 16.4156H60.8393V12.5557H51.5277V9.22188H61.6264V5.17773H47.4702V23.9547H61.7387V19.9105H51.5277V16.4156Z" fill="white"/>
<path d="M70.8931 5.17773L62.8926 23.9547H67.2773L68.8504 20.1506H77.2135L78.7834 23.9547H83.1681L75.1655 5.17773H70.8931ZM70.5241 16.1065L73.0491 10.1373L75.5366 16.1065H70.5241Z" fill="white"/>
<path d="M97.0429 5.17773H79.5811V9.246H86.2833V23.9547H90.3407V9.246H97.0429V5.17773Z" fill="white"/>
<path d="M106.173 4.80859H105.904C103.272 4.80859 100.878 5.78756 99.1668 7.56572C97.4556 9.34387 96.5359 11.7962 96.5648 14.47C96.5317 17.2348 97.477 19.7563 99.2266 21.5728C100.938 23.3477 103.309 24.3255 105.905 24.3255H106.171C108.704 24.3255 111.028 23.363 112.71 21.6155C114.465 19.7935 115.412 17.2568 115.384 14.4777C115.417 11.7732 114.491 9.30331 112.776 7.52296C111.09 5.76893 108.746 4.80859 106.178 4.80859H106.173ZM106.039 20.2803C102.903 20.2803 100.714 17.8455 100.714 14.3604C100.714 11.1198 102.903 8.85603 106.039 8.85603C109.095 8.85603 111.23 11.1198 111.23 14.3604C111.23 17.8466 109.091 20.2803 106.039 20.2803Z" fill="white"/>
<path d="M131.224 20.5201C131.2 20.1177 131.08 19.1366 130.973 18.3725C130.75 16.9353 130.233 16.0703 129.286 15.5912C130.764 14.7011 131.539 13.1641 131.539 11.1075C131.539 7.33958 129.226 5.17773 125.191 5.17773H116.686V23.9547H120.743V17.0383H124.301C126.46 17.1479 126.468 17.1896 126.831 19.4907L126.966 20.5497C127.14 22.0099 127.257 22.9746 127.617 23.7903L127.691 23.9547H131.853V23.3846L131.832 23.3309C131.413 22.3377 131.333 21.7687 131.224 20.5201ZM120.743 9.22188H124.495C125.806 9.22188 127.368 9.57708 127.368 11.2697C127.368 12.6434 126.44 13.3395 124.608 13.3395H120.743V9.22188Z" fill="white"/>
<path d="M146.77 14.8598C146.052 14.0727 145.273 13.5651 144.372 13.3064C143.517 13.0598 142.383 12.846 140.889 12.6487C139.88 12.5292 139.11 12.3834 138.643 12.2847C137.146 11.9317 136.966 11.1884 136.966 10.6688C136.966 9.03425 138.615 8.6955 139.998 8.6955C141.895 8.6955 143.019 9.55498 143.166 11.115L143.189 11.3693H147.582V11.0876C147.582 7.33393 144.562 4.8125 140.066 4.8125C135.649 4.8125 132.793 7.13112 132.793 10.7192C132.793 12.1696 133.144 13.29 133.829 14.0409C134.461 14.7996 135.297 15.3503 136.233 15.6239C137.367 15.934 138.522 16.1604 139.688 16.3014C140.775 16.4527 141.525 16.5963 141.957 16.6873C143.42 17.0392 143.591 17.7661 143.591 18.2813C143.591 19.6352 142.347 20.4443 140.266 20.4443C138.101 20.4443 136.824 19.3655 136.762 17.4843L136.752 17.2135H132.277V17.4953C132.277 21.6425 135.378 24.324 140.176 24.324C144.797 24.324 147.783 21.933 147.783 18.232C147.783 16.7849 147.442 15.6524 146.764 14.8576" fill="white"/>
<path d="M14.7749 29.2705C6.90383 29.2705 0.5 22.7027 0.5 14.633C0.5 6.56338 6.90383 0 14.7749 0C22.646 0 29.0541 6.56448 29.0541 14.633C29.0541 22.7016 22.6471 29.2705 14.7749 29.2705ZM14.7749 2.81961C12.4949 2.81961 10.266 3.51274 8.37025 4.81132C6.47448 6.1099 4.99697 7.95562 4.12458 10.115C3.25218 12.2744 3.02408 14.6506 3.46913 16.9429C3.91419 19.2352 5.0124 21.3407 6.62487 22.9932C8.23735 24.6457 10.2917 25.7708 12.528 26.2264C14.7643 26.682 17.0822 26.4475 19.1886 25.5526C21.2949 24.6577 23.095 23.1426 24.3613 21.199C25.6276 19.2553 26.3031 16.9703 26.3025 14.633C26.2991 11.5002 25.0834 8.49673 22.9223 6.2816C20.7612 4.06646 17.8311 2.82061 14.7749 2.81742" fill="white"/>
</g>
</g>
<defs>
<clipPath id="clip0_7954_52930">
<rect width="147.289" height="30" fill="white" transform="translate(0.5)"/>
</clipPath>
<clipPath id="clip1_7954_52930">
<rect width="147.289" height="30" fill="white" transform="translate(0.5)"/>
</clipPath>
</defs>
</svg>
