<svg width="59" height="58" viewBox="0 0 59 58" fill="none" xmlns="http://www.w3.org/2000/svg">
<rect x="0.5" width="58" height="58" rx="29" fill="#E3E3E3"/>
<path d="M34.2209 31.1682C33.8819 33.3531 32.1687 34.7113 29.7464 34.7113C26.6888 34.7113 24.7136 32.3872 24.7136 28.7915C24.7136 25.393 26.6589 23.286 29.7913 23.286C32.0061 23.286 33.6659 24.5533 34.0188 26.5145L34.0616 26.7447H38.2228L38.1822 26.4268C37.6389 22.1283 34.3033 19.2407 29.8843 19.2407H29.7496C27.2086 19.2407 24.8772 20.2087 23.1843 21.9661C21.4614 23.7552 20.531 26.2218 20.5705 28.9033C20.5363 31.6703 21.4871 34.2005 23.2442 36.0291C24.9403 37.7897 27.2674 38.7588 29.7999 38.7588H29.9303C34.2434 38.7588 37.7212 35.675 38.3875 31.2592L38.4367 30.9303H34.2594L34.2209 31.1682Z" fill="#111111"/>
<path d="M29.4981 43.6352C21.627 43.6352 15.2231 37.0675 15.2231 28.9978C15.2231 20.9281 21.627 14.3648 29.4981 14.3648C37.3692 14.3648 43.7773 20.9292 43.7773 28.9978C43.7773 37.0664 37.3703 43.6352 29.4981 43.6352ZM29.4981 17.1844C27.218 17.1844 24.9892 17.8775 23.0934 19.1761C21.1976 20.4747 19.7201 22.3204 18.8477 24.4798C17.9753 26.6392 17.7472 29.0153 18.1923 31.3076C18.6373 33.5999 19.7355 35.7055 21.348 37.3579C22.9605 39.0104 25.0148 40.1356 27.2511 40.5912C29.4875 41.0467 31.8054 40.8123 33.9117 39.9174C36.018 39.0225 37.8182 37.5074 39.0844 35.5637C40.3507 33.62 41.0263 31.3351 41.0256 28.9978C41.0222 25.865 39.8066 22.8615 37.6455 20.6464C35.4843 18.4312 32.5542 17.1854 29.4981 17.1822" fill="#111111"/>
</svg>
